# xmcd
#
# Track frame offsets: 
#        182
#        17307
#        63712
#        115007
#        136127
#        166510
#        204995
#        232145
#
# Disc length: 3387 seconds
#
# Revision: 0
# Processed by: cddbd v1.5.2PL0 Copyright (c) Steve Scherf et al.
# Submitted via: ExactAudioCopy v1.0b1
#
DISCID=5d0d3908
DTITLE=Salim Halali - Le Plus Grand Chanteur Oriental Vol. 1
DYEAR=1992
DGENRE=
TTITLE0=Cherragda Bezzine
TTITLE1=Dourt Essahara
TTITLE2=Tahdar Aou Tghib
TTITLE3=Mani Ouley Dek
TTITLE4=Ya Ghorbati
TTITLE5=El Forga Morra
TTITLE6=Tgherrebt Fbeldane Ennass
TTITLE7=Fettouma Teez Eliya
EXTD=
EXTT0=
EXTT1=
EXTT2=
EXTT3=
EXTT4=
EXTT5=
EXTT6=
EXTT7=
PLAYORDER=
